{
  "accessors": [
    {
      "bufferView": 2,
      "componentType": 5126,
      "count": 226,
      "max": [
        12.606085777282715,
        2.5844595432281494,
        12.785929679870605
      ],
      "min": [
        -12.393914222717285,
        -3.6655404567718506,
        -12.214070320129395
      ],
      "type": "VEC3"
    },
    {
      "bufferView": 2,
      "byteOffset": 2712,
      "componentType": 5126,
      "count": 226,
      "max": [
        1.0,
        1.0,
        1.0
      ],
      "min": [
        -1.0,
        -1.0,
        -1.0
      ],
      "type": "VEC3"
    },
    {
      "bufferView": 1,
      "componentType": 5126,
      "count": 226,
      "max": [
        1.0,
        1.0
      ],
      "min": [
        0.0,
        0.15625
      ],
      "type": "VEC2"
    },
    {
      "bufferView": 1,
      "byteOffset": 1808,
      "componentType": 5126,
      "count": 226,
      "max": [
        1.0,
        1.0
      ],
      "min": [
        0.0,
        0.15625
      ],
      "type": "VEC2"
    },
    {
      "bufferView": 1,
      "byteOffset": 3616,
      "componentType": 5126,
      "count": 226,
      "max": [
        1.0,
        1.0
      ],
      "min": [
        0.0,
        0.15625
      ],
      "type": "VEC2"
    },
    {
      "bufferView": 1,
      "byteOffset": 5424,
      "componentType": 5126,
      "count": 226,
      "max": [
        1.0,
        1.0
      ],
      "min": [
        0.0,
        0.15625
      ],
      "type": "VEC2"
    },
    {
      "bufferView": 1,
      "byteOffset": 7232,
      "componentType": 5126,
      "count": 226,
      "max": [
        1.0,
        1.0
      ],
      "min": [
        0.0,
        0.15625
      ],
      "type": "VEC2"
    },
    {
      "bufferView": 1,
      "byteOffset": 9040,
      "componentType": 5126,
      "count": 226,
      "max": [
        1.0,
        1.0
      ],
      "min": [
        0.0,
        0.15625
      ],
      "type": "VEC2"
    },
    {
      "bufferView": 1,
      "byteOffset": 10848,
      "componentType": 5126,
      "count": 226,
      "max": [
        1.0,
        1.0
      ],
      "min": [
        0.0,
        0.15625
      ],
      "type": "VEC2"
    },
    {
      "bufferView": 1,
      "byteOffset": 12656,
      "componentType": 5126,
      "count": 226,
      "max": [
        1.0,
        1.0
      ],
      "min": [
        0.0,
        0.15625
      ],
      "type": "VEC2"
    },
    {
      "bufferView": 1,
      "byteOffset": 14464,
      "componentType": 5126,
      "count": 226,
      "max": [
        1.0,
        1.0
      ],
      "min": [
        0.0,
        0.15625
      ],
      "type": "VEC2"
    },
    {
      "bufferView": 1,
      "byteOffset": 16272,
      "componentType": 5126,
      "count": 226,
      "max": [
        1.0,
        1.0
      ],
      "min": [
        0.0,
        0.15625
      ],
      "type": "VEC2"
    },
    {
      "bufferView": 0,
      "componentType": 5125,
      "count": 360,
      "type": "SCALAR"
    }
  ],
  "asset": {
    "extras": {
      "author": "ohad.zak05 (https://sketchfab.com/ohad.zak05)",
      "license": "CC-BY-4.0 (http://creativecommons.org/licenses/by/4.0/)",
      "source": "https://sketchfab.com/3d-models/low-poly-cookie-d389a968d0df45508f3cf1670c6559e1",
      "title": "Low poly cookie"
    },
    "generator": "Sketchfab-16.16.0",
    "version": "2.0"
  },
  "bufferViews": [
    {
      "buffer": 0,
      "byteLength": 1440,
      "name": "floatBufferViews",
      "target": 34963
    },
    {
      "buffer": 0,
      "byteLength": 18080,
      "byteOffset": 1440,
      "byteStride": 8,
      "name": "floatBufferViews",
      "target": 34962
    },
    {
      "buffer": 0,
      "byteLength": 5424,
      "byteOffset": 19520,
      "byteStride": 12,
      "name": "floatBufferViews",
      "target": 34962
    }
  ],
  "buffers": [
    {
      "byteLength": 24944,
      "uri": "scene.bin"
    }
  ],
  "extensionsUsed": [
    "KHR_materials_unlit"
  ],
  "images": [
    {
      "uri": "textures/Cookie.png_baseColor.png"
    }
  ],
  "materials": [
    {
      "doubleSided": true,
      "extensions": {
        "KHR_materials_unlit": {}
      },
      "name": "Cookie.png",
      "pbrMetallicRoughness": {
        "baseColorTexture": {
          "index": 0
        },
        "metallicFactor": 0.0
      }
    }
  ],
  "meshes": [
    {
      "name": "Cookie_Cookie.png_0",
      "primitives": [
        {
          "attributes": {
            "NORMAL": 1,
            "POSITION": 0,
            "TEXCOORD_0": 2,
            "TEXCOORD_1": 3,
            "TEXCOORD_2": 4,
            "TEXCOORD_3": 5,
            "TEXCOORD_4": 6,
            "TEXCOORD_5": 7,
            "TEXCOORD_6": 8,
            "TEXCOORD_7": 9,
            "TEXCOORD_8": 10,
            "TEXCOORD_9": 11
          },
          "indices": 12,
          "material": 0,
          "mode": 4
        }
      ]
    }
  ],
  "nodes": [
    {
      "children": [
        1
      ],
      "matrix": [
        1.0,
        0.0,
        0.0,
        0.0,
        0.0,
        2.220446049250313e-16,
        -1.0,
        0.0,
        0.0,
        1.0,
        2.220446049250313e-16,
        0.0,
        0.0,
        0.0,
        0.0,
        1.0
      ],
      "name": "Sketchfab_model"
    },
    {
      "children": [
        2
      ],
      "matrix": [
        0.009999999776482582,
        0.0,
        0.0,
        0.0,
        0.0,
        0.0,
        0.009999999776482582,
        0.0,
        0.0,
        -0.009999999776482582,
        0.0,
        0.0,
        0.0,
        0.0,
        0.0,
        1.0
      ],
      "name": "14587daea4974a56a7b0e9ab9841e465.fbx"
    },
    {
      "children": [
        3
      ],
      "name": "RootNode"
    },
    {
      "children": [
        4
      ],
      "matrix": [
        1.0,
        0.0,
        0.0,
        0.0,
        0.0,
        1.0,
        0.0,
        0.0,
        0.0,
        0.0,
        1.0,
        0.0,
        -0.10608622431755066,
        3.6655404567718506,
        -0.2859298586845398,
        1.0
      ],
      "name": "Cookie"
    },
    {
      "mesh": 0,
      "name": "Cookie_Cookie.png_0"
    }
  ],
  "samplers": [
    {
      "magFilter": 9728,
      "minFilter": 9728,
      "wrapS": 10497,
      "wrapT": 10497
    }
  ],
  "scene": 0,
  "scenes": [
    {
      "name": "Sketchfab_Scene",
      "nodes": [
        0
      ]
    }
  ],
  "textures": [
    {
      "sampler": 0,
      "source": 0
    }
  ]
}
